<svg id="Layer_1" enable-background="new 0 0 482 482" height="512" viewBox="0 0 482 482" width="512" xmlns="http://www.w3.org/2000/svg"><path d="m137 122c8.271 0 15 6.729 15 15s-6.729 15-15 15-15-6.729-15-15 6.729-15 15-15zm0 212c-8.271 0-15 6.729-15 15s6.729 15 15 15 15-6.729 15-15-6.729-15-15-15zm197-197c0 8.271 6.729 15 15 15s15-6.729 15-15-6.729-15-15-15-15 6.729-15 15zm148-64v336c0 40.25-32.75 73-73 73h-336c-40.25 0-73-32.75-73-73v-336c0-40.25 32.75-73 73-73h336c40.25 0 73 32.75 73 73zm-133 31c-18.196 0-33 14.804-33 33s14.804 33 33 33 33-14.804 33-33-14.804-33-33-33zm-179 245c0-18.196-14.804-33-33-33s-33 14.804-33 33 14.804 33 33 33 33-14.804 33-33zm-33-88c-48.523 0-88 39.477-88 88s39.477 88 88 88c4.971 0 9-4.029 9-9s-4.029-9-9-9c-38.598 0-70-31.402-70-70s31.402-70 70-70c61.977 0 93.472 75.522 49.497 119.498-3.515 3.515-3.515 9.213 0 12.728 3.516 3.515 9.213 3.515 12.729 0 55.302-55.303 15.646-150.226-62.226-150.226zm88-124c0-48.523-39.477-88-88-88s-88 39.477-88 88c0 76.149 90.353 115.792 146.537 65.708 3.71-3.308 4.036-8.997.729-12.707-3.307-3.711-8.997-4.036-12.707-.729-44.675 39.828-116.559 8.31-116.559-52.272 0-38.598 31.402-70 70-70s70 31.402 70 70c0 4.971 4.029 9 9 9s9-4.029 9-9zm-88-33c-18.196 0-33 14.804-33 33s14.804 33 33 33 33-14.804 33-33-14.804-33-33-33zm205 295c0-10.477-8.523-19-19-19s-19 8.523-19 19 8.523 19 19 19 19-8.523 19-19zm70 0c0-10.477-8.523-19-19-19s-19 8.523-19 19 8.523 19 19 19 19-8.523 19-19zm0-70c0-10.477-8.523-19-19-19s-19 8.523-19 19 8.523 19 19 19 19-8.523 19-19zm3.761-249.334c-3.241-3.771-8.923-4.199-12.691-.959-3.77 3.24-4.199 8.922-.959 12.691 38.7 45.027 6.711 115.602-53.111 115.602-38.598 0-70-31.402-70-70s31.402-70 70-70c4.971 0 9-4.029 9-9s-4.029-9-9-9c-48.523 0-88 39.477-88 88s39.477 88 88 88c75.065 0 115.488-88.642 66.761-145.334z"/></svg>