<svg width="72" height="27" viewBox="0 0 72 27" fill="none" xmlns="http://www.w3.org/2000/svg">
<path d="M24.3281 13V11.9746L25.2363 11.7988V5.67578L24.3281 5.5V4.46875H28.3711C29.3516 4.46875 30.1211 4.69531 30.6797 5.14844C31.2383 5.59766 31.5176 6.21875 31.5176 7.01172C31.5176 7.51562 31.3887 7.9668 31.1309 8.36523C30.877 8.76367 30.5273 9.07422 30.082 9.29688L31.166 11.8047L31.8926 11.9746V13H29.8184L28.5059 9.63086H26.9473V11.7988L27.8613 11.9746V13H24.3281ZM26.9473 8.3125H28.3418C29.3223 8.3125 29.8125 7.9043 29.8125 7.08789C29.8125 6.69336 29.6914 6.37891 29.4492 6.14453C29.207 5.90625 28.8477 5.78711 28.3711 5.78711H26.9473V8.3125ZM32.5781 13V11.9746L33.4863 11.7988V5.67578L32.5781 5.5V4.46875H39.1992V6.77148H37.8867L37.8105 5.78711H35.1973V7.93164H38.0859V9.25H35.1973V11.6875H37.9512L38.0273 10.668H39.3281V13H32.5781ZM43.7227 13.123C43.0938 13.123 42.5215 13.0527 42.0059 12.9121C41.4902 12.7715 40.9824 12.5273 40.4824 12.1797V10.1172H41.8066L41.9883 11.3301C42.1602 11.4785 42.4004 11.5996 42.709 11.6934C43.0215 11.7832 43.3594 11.8281 43.7227 11.8281C44.1875 11.8281 44.543 11.7344 44.7891 11.5469C45.0352 11.3555 45.1582 11.0977 45.1582 10.7734C45.1582 10.4688 45.041 10.2129 44.8066 10.0059C44.5762 9.79492 44.1699 9.59961 43.5879 9.41992C42.5762 9.12695 41.8223 8.7793 41.3262 8.37695C40.8301 7.97461 40.582 7.42383 40.582 6.72461C40.582 6.26367 40.709 5.85742 40.9629 5.50586C41.2207 5.15039 41.5762 4.87109 42.0293 4.66797C42.4824 4.46484 43.0059 4.35938 43.5996 4.35156C44.2559 4.34375 44.8359 4.42188 45.3398 4.58594C45.8477 4.75 46.2852 4.97852 46.6523 5.27148V7.19336H45.3691L45.1465 6.02148C44.998 5.92773 44.7969 5.8457 44.543 5.77539C44.293 5.70508 44.0078 5.66992 43.6875 5.66992C43.2773 5.66992 42.9414 5.76172 42.6797 5.94531C42.418 6.12891 42.2871 6.38672 42.2871 6.71875C42.2871 7.00391 42.4082 7.24219 42.6504 7.43359C42.8965 7.62109 43.3477 7.82031 44.0039 8.03125C44.9453 8.29297 45.6582 8.63867 46.1426 9.06836C46.6309 9.49805 46.875 10.0625 46.875 10.7617C46.875 11.25 46.7441 11.6699 46.4824 12.0215C46.2207 12.373 45.8516 12.6445 45.375 12.8359C44.9023 13.0273 44.3516 13.123 43.7227 13.123ZM51.4629 13.123C50.6934 13.123 50.0195 12.9375 49.4414 12.5664C48.8633 12.1914 48.4121 11.6777 48.0879 11.0254C47.7676 10.373 47.6074 9.63086 47.6074 8.79883V8.66992C47.6074 7.8418 47.7676 7.10156 48.0879 6.44922C48.4121 5.79688 48.8613 5.2832 49.4355 4.9082C50.0137 4.5332 50.6875 4.3457 51.457 4.3457C52.2266 4.3457 52.9023 4.5332 53.4844 4.9082C54.0703 5.2832 54.5254 5.79688 54.8496 6.44922C55.1777 7.10156 55.3418 7.8418 55.3418 8.66992V8.79883C55.3418 9.63086 55.1797 10.373 54.8555 11.0254C54.5312 11.6777 54.0762 12.1914 53.4902 12.5664C52.9082 12.9375 52.2324 13.123 51.4629 13.123ZM51.4629 11.793C52.1855 11.793 52.7285 11.5195 53.0918 10.9727C53.4551 10.4219 53.6367 9.69727 53.6367 8.79883V8.6582C53.6367 8.06836 53.5547 7.55078 53.3906 7.10547C53.2266 6.65625 52.9824 6.30664 52.6582 6.05664C52.3379 5.80664 51.9375 5.68164 51.457 5.68164C50.7383 5.68164 50.2012 5.95508 49.8457 6.50195C49.4941 7.04883 49.3184 7.76758 49.3184 8.6582V8.79883C49.3184 9.69727 49.4961 10.4219 49.8516 10.9727C50.2109 11.5195 50.748 11.793 51.4629 11.793ZM56.0273 13V11.9746L56.9355 11.7988V5.67578L56.0273 5.5V4.46875H60.0703C61.0508 4.46875 61.8203 4.69531 62.3789 5.14844C62.9375 5.59766 63.2168 6.21875 63.2168 7.01172C63.2168 7.51562 63.0879 7.9668 62.8301 8.36523C62.5762 8.76367 62.2266 9.07422 61.7812 9.29688L62.8652 11.8047L63.5918 11.9746V13H61.5176L60.2051 9.63086H58.6465V11.7988L59.5605 11.9746V13H56.0273ZM58.6465 8.3125H60.041C61.0215 8.3125 61.5117 7.9043 61.5117 7.08789C61.5117 6.69336 61.3906 6.37891 61.1484 6.14453C60.9062 5.90625 60.5469 5.78711 60.0703 5.78711H58.6465V8.3125ZM65.9473 13V11.9746L66.8613 11.7988V5.78711H65.3086L65.2148 6.80664H63.9199V4.46875H71.5312V6.80664H70.2305L70.1367 5.78711H68.5723V11.7988L69.4922 11.9746V13H65.9473Z" fill="white"/>
<path d="M24.3281 24V23.4902L25.2832 23.4141V15.4512L24.3281 15.375V14.8594H25.9863V18.7676C26.1934 18.3809 26.4707 18.0801 26.8184 17.8652C27.1699 17.6504 27.582 17.543 28.0547 17.543C28.7227 17.543 29.2344 17.75 29.5898 18.1641C29.9492 18.5742 30.1289 19.2168 30.1289 20.0918V23.4141L31.084 23.4902V24H28.4707V23.4902L29.4258 23.4141V20.0801C29.4258 19.3887 29.291 18.8945 29.0215 18.5977C28.752 18.2969 28.377 18.1465 27.8965 18.1465C27.3809 18.1465 26.9648 18.291 26.6484 18.5801C26.3359 18.8691 26.1152 19.2441 25.9863 19.7051V23.4141L26.9414 23.4902V24H24.3281ZM34.875 24.123C34.3086 24.123 33.8145 23.9883 33.3926 23.7188C32.9707 23.4453 32.6426 23.0684 32.4082 22.5879C32.1777 22.1074 32.0625 21.5547 32.0625 20.9297V20.7363C32.0625 20.1152 32.1777 19.5645 32.4082 19.084C32.6426 18.6035 32.9688 18.2266 33.3867 17.9531C33.8086 17.6797 34.3008 17.543 34.8633 17.543C35.4258 17.543 35.918 17.6797 36.3398 17.9531C36.7617 18.2266 37.0879 18.6035 37.3184 19.084C37.5527 19.5645 37.6699 20.1152 37.6699 20.7363V20.9297C37.6699 21.5547 37.5527 22.1074 37.3184 22.5879C37.0879 23.0684 36.7617 23.4453 36.3398 23.7188C35.9219 23.9883 35.4336 24.123 34.875 24.123ZM34.875 23.5371C35.3086 23.5371 35.6816 23.4219 35.9941 23.1914C36.3066 22.9609 36.5469 22.6504 36.7148 22.2598C36.8828 21.8652 36.9668 21.4219 36.9668 20.9297V20.7363C36.9668 20.252 36.8809 19.8145 36.709 19.4238C36.541 19.0293 36.2988 18.7168 35.9824 18.4863C35.6699 18.252 35.2969 18.1348 34.8633 18.1348C34.4219 18.1348 34.0449 18.252 33.7324 18.4863C33.4199 18.7168 33.1797 19.0293 33.0117 19.4238C32.8477 19.8145 32.7656 20.252 32.7656 20.7363V20.9297C32.7656 21.4219 32.8477 21.8652 33.0117 22.2598C33.1797 22.6504 33.4199 22.9609 33.7324 23.1914C34.0488 23.4219 34.4297 23.5371 34.875 23.5371ZM40.9863 24.1113C40.541 24.1113 40.1953 23.9746 39.9492 23.7012C39.7031 23.4238 39.5801 22.9785 39.5801 22.3652V18.2285H38.4844V17.6602H39.5801V16.0312H40.2832V17.6602H41.7598V18.2285H40.2832V22.3652C40.2832 22.7871 40.3574 23.0918 40.5059 23.2793C40.6582 23.4629 40.8594 23.5547 41.1094 23.5547C41.2383 23.5547 41.3672 23.5469 41.4961 23.5312C41.6289 23.5156 41.7637 23.4961 41.9004 23.4727L42.0059 23.9766C41.7012 24.0664 41.3613 24.1113 40.9863 24.1113ZM45.6504 24.123C45.1074 24.123 44.6289 23.9922 44.2148 23.7305C43.8008 23.4648 43.4766 23.0996 43.2422 22.6348C43.0078 22.166 42.8906 21.627 42.8906 21.0176V20.6953C42.8906 20.0898 43.0078 19.5508 43.2422 19.0781C43.4766 18.6016 43.793 18.2266 44.1914 17.9531C44.5938 17.6797 45.041 17.543 45.5332 17.543C46.3105 17.543 46.918 17.7891 47.3555 18.2812C47.793 18.7695 48.0117 19.4238 48.0117 20.2441V20.8418H43.6172L43.6055 21.0996C43.6094 21.5684 43.6953 21.9863 43.8633 22.3535C44.0352 22.7207 44.2734 23.0098 44.5781 23.2207C44.8867 23.4316 45.2441 23.5371 45.6504 23.5371C46.0488 23.5371 46.3984 23.4746 46.6992 23.3496C47.0039 23.2246 47.2715 23.0508 47.502 22.8281L47.8008 23.3086C47.5586 23.5469 47.2617 23.7422 46.9102 23.8945C46.5586 24.0469 46.1387 24.123 45.6504 24.123ZM43.6641 20.2559H47.3086V20.0801C47.3086 19.5215 47.1504 19.0586 46.834 18.6914C46.5215 18.3203 46.0879 18.1348 45.5332 18.1348C45.1973 18.1348 44.8945 18.2266 44.625 18.4102C44.3555 18.5898 44.1348 18.8379 43.9629 19.1543C43.7949 19.4668 43.6914 19.8223 43.6523 20.2207L43.6641 20.2559ZM49.0547 24V23.4902L50.0098 23.4141V15.4512L49.0547 15.375V14.8594H50.7129V23.4141L51.668 23.4902V24H49.0547Z" fill="white"/>
<path d="M1 14H5C5 12.6739 5.52678 11.4021 6.46447 10.4645C7.40215 9.52678 8.67392 9 10 9C11.3261 9 12.5979 9.52678 13.5355 10.4645C14.4732 11.4021 15 12.6739 15 14H19C19.2652 14 19.5196 14.1054 19.7071 14.2929C19.8946 14.4804 20 14.7348 20 15C20 15.2652 19.8946 15.5196 19.7071 15.7071C19.5196 15.8946 19.2652 16 19 16H1C0.734784 16 0.48043 15.8946 0.292893 15.7071C0.105357 15.5196 0 15.2652 0 15C0 14.7348 0.105357 14.4804 0.292893 14.2929C0.48043 14.1054 0.734784 14 1 14V14ZM3 18H17C17.2652 18 17.5196 18.1054 17.7071 18.2929C17.8946 18.4804 18 18.7348 18 19C18 19.2652 17.8946 19.5196 17.7071 19.7071C17.5196 19.8946 17.2652 20 17 20H3C2.73478 20 2.48043 19.8946 2.29289 19.7071C2.10536 19.5196 2 19.2652 2 19C2 18.7348 2.10536 18.4804 2.29289 18.2929C2.48043 18.1054 2.73478 18 3 18ZM15 22C15.2652 22 15.5196 22.1054 15.7071 22.2929C15.8946 22.4804 16 22.7348 16 23C16 23.2652 15.8946 23.5196 15.7071 23.7071C15.5196 23.8946 15.2652 24 15 24H5C4.73478 24 4.48043 23.8946 4.29289 23.7071C4.10536 23.5196 4 23.2652 4 23C4 22.7348 4.10536 22.4804 4.29289 22.2929C4.48043 22.1054 4.73478 22 5 22H15ZM13 14C13 13.2044 12.6839 12.4413 12.1213 11.8787C11.5587 11.3161 10.7956 11 10 11C9.20435 11 8.44129 11.3161 7.87868 11.8787C7.31607 12.4413 7 13.2044 7 14H13ZM10 4L12.39 7.42C11.65 7.15 10.84 7 10 7C9.16 7 8.35 7.15 7.61 7.42L10 4ZM1.34 9L5.5 8.65C4.9 9.16 4.36 9.78 3.94 10.5C3.5 11.24 3.25 12 3.11 12.79L1.34 9ZM18.65 9L16.88 12.79C16.74 12 16.47 11.23 16.05 10.5C15.63 9.78 15.1 9.15 14.5 8.64L18.65 9Z" fill="white"/>
</svg>
