<svg width="301" height="301" viewBox="0 0 301 301" fill="none" xmlns="http://www.w3.org/2000/svg">
<rect x="5.01562" y="5.66016" width="290" height="290" stroke="#248AFD" stroke-width="10"/>
<path d="M123.148 56.7082V59.5882C121.036 60.3562 118.78 62.0362 116.38 64.6281C114.076 67.2201 111.916 71.2522 109.9 76.7242L79.5156 158.948C78.7476 158.852 77.9316 158.804 77.0676 158.804C76.2036 158.804 75.3396 158.804 74.4756 158.804C73.7076 158.804 72.8916 158.804 72.0276 158.804C71.1636 158.804 70.3476 158.852 69.5796 158.948L32.8596 68.8042C31.5156 65.3482 30.0276 62.9962 28.3956 61.7482C26.7636 60.4042 25.2276 59.6842 23.7876 59.5882V56.7082C26.6676 56.8042 30.0276 56.9002 33.8676 56.9962C37.8036 57.0922 41.7396 57.1402 45.6756 57.1402C50.0916 57.1402 54.2196 57.0922 58.0596 56.9962C61.9956 56.9002 65.1636 56.8042 67.5636 56.7082V59.5882C62.8596 59.7802 59.7876 60.5962 58.3476 62.0362C56.9076 63.3802 57.1956 66.5962 59.2116 71.6842L85.4196 138.356L82.3956 141.956L102.268 88.3882C104.86 81.1882 106.204 75.5242 106.3 71.3962C106.396 67.2682 105.388 64.2921 103.276 62.4682C101.164 60.6442 98.1396 59.6842 94.2036 59.5882V56.7082C97.4676 56.8042 100.54 56.9002 103.42 56.9962C106.3 57.0922 109.228 57.1402 112.204 57.1402C114.316 57.1402 116.284 57.0922 118.108 56.9962C120.028 56.9002 121.708 56.8042 123.148 56.7082ZM118.391 185.732V182.852C122.231 182.468 125.495 181.316 128.183 179.396C130.871 177.572 132.935 174.404 134.375 169.892C135.815 165.38 136.535 159.044 136.535 150.884V71.9721C136.535 68.4201 136.247 65.8281 135.671 64.1962C135.191 62.4682 134.183 61.3162 132.647 60.7402C131.111 60.0682 128.807 59.6842 125.735 59.5882V56.7082C128.135 56.8042 131.255 56.9002 135.095 56.9962C139.031 57.0922 143.159 57.1402 147.479 57.1402C151.799 57.1402 155.975 57.0922 160.007 56.9962C164.135 56.9002 167.543 56.8042 170.231 56.7082V59.5882C167.255 59.6842 164.951 60.0682 163.319 60.7402C161.783 61.3162 160.727 62.4682 160.151 64.1962C159.671 65.8281 159.431 68.4201 159.431 71.9721V124.676C159.431 128.612 159.431 132.884 159.431 137.492C159.431 142.004 159.239 146.42 158.855 150.74C158.567 155.06 157.943 158.9 156.983 162.26C155.063 168.884 150.887 174.452 144.455 178.964C138.119 183.476 129.431 185.732 118.391 185.732ZM271.788 56.7082V59.5882C269.676 60.3562 267.42 62.0362 265.02 64.6281C262.716 67.2201 260.556 71.2522 258.54 76.7242L228.156 158.948C227.388 158.852 226.572 158.804 225.708 158.804C224.844 158.804 223.98 158.804 223.116 158.804C222.348 158.804 221.532 158.804 220.668 158.804C219.804 158.804 218.988 158.852 218.22 158.948L181.5 68.8042C180.156 65.3482 178.668 62.9962 177.036 61.7482C175.404 60.4042 173.868 59.6842 172.428 59.5882V56.7082C175.308 56.8042 178.668 56.9002 182.508 56.9962C186.444 57.0922 190.38 57.1402 194.316 57.1402C198.732 57.1402 202.86 57.0922 206.7 56.9962C210.636 56.9002 213.804 56.8042 216.204 56.7082V59.5882C211.5 59.7802 208.428 60.5962 206.988 62.0362C205.548 63.3802 205.836 66.5962 207.852 71.6842L234.06 138.356L231.036 141.956L250.908 88.3882C253.5 81.1882 254.844 75.5242 254.94 71.3962C255.036 67.2682 254.028 64.2921 251.916 62.4682C249.804 60.6442 246.78 59.6842 242.844 59.5882V56.7082C246.108 56.8042 249.18 56.9002 252.06 56.9962C254.94 57.0922 257.868 57.1402 260.844 57.1402C262.956 57.1402 264.924 57.0922 266.748 56.9962C268.668 56.9002 270.348 56.8042 271.788 56.7082Z" fill="#248AFD"/>
<path d="M53.8656 206.62C57.039 206.62 59.629 207.063 61.6356 207.95C63.6423 208.837 65.439 209.91 67.0256 211.17C67.5856 211.59 68.0523 211.8 68.4256 211.8C69.3123 211.8 69.8956 210.4 70.1756 207.6H71.7856C71.6923 209.42 71.6223 211.637 71.5756 214.25C71.529 216.817 71.5056 220.247 71.5056 224.54H69.8956C69.569 221.74 69.0556 219.313 68.3556 217.26C67.7023 215.16 66.4656 213.363 64.6456 211.87C63.5256 210.797 62.1256 209.957 60.4456 209.35C58.8123 208.743 57.1556 208.44 55.4756 208.44C52.909 208.44 50.7156 209.117 48.8956 210.47C47.0756 211.777 45.5823 213.573 44.4156 215.86C43.249 218.147 42.3856 220.737 41.8256 223.63C41.2656 226.477 40.9856 229.44 40.9856 232.52C40.9856 240.92 42.129 247.057 44.4156 250.93C46.749 254.803 50.0856 256.74 54.4256 256.74C55.5456 256.74 56.5256 256.6 57.3656 256.32C58.2056 256.04 58.8823 255.713 59.3956 255.34C60.049 254.873 60.4923 254.383 60.7256 253.87C60.959 253.31 61.0756 252.587 61.0756 251.7V244.84C61.0756 242.693 60.889 241.107 60.5156 240.08C60.189 239.007 59.5123 238.283 58.4856 237.91C57.459 237.537 55.9656 237.327 54.0056 237.28V235.88C54.9856 235.927 56.1523 235.973 57.5056 236.02C58.9056 236.02 60.3523 236.043 61.8456 236.09C63.339 236.09 64.7156 236.09 65.9756 236.09C67.9356 236.09 69.7323 236.067 71.3656 236.02C72.999 235.973 74.329 235.927 75.3556 235.88V237.28C74.049 237.373 73.1856 237.747 72.7656 238.4C72.3923 239.053 72.2056 240.687 72.2056 243.3V257.16H70.8056C70.759 256.367 70.5723 255.503 70.2456 254.57C69.9656 253.637 69.4756 253.17 68.7756 253.17C68.449 253.17 68.0056 253.263 67.4456 253.45C66.9323 253.59 66.1156 253.987 64.9956 254.64C63.269 255.62 61.449 256.46 59.5356 257.16C57.6223 257.813 55.6156 258.14 53.5156 258.14C45.349 258.14 39.1423 255.923 34.8956 251.49C30.649 247.057 28.5256 240.873 28.5256 232.94C28.5256 227.62 29.599 223 31.7456 219.08C33.939 215.16 36.9256 212.103 40.7056 209.91C44.5323 207.717 48.919 206.62 53.8656 206.62ZM79.3702 207.6C80.5369 207.647 82.1002 207.693 84.0602 207.74C86.0669 207.787 88.0502 207.81 90.0102 207.81C92.2502 207.81 94.4202 207.787 96.5202 207.74C98.6202 207.693 100.114 207.67 101 207.67C107.487 207.67 112.34 208.743 115.56 210.89C118.78 212.99 120.39 215.977 120.39 219.85C120.39 221.437 120.064 223.047 119.41 224.68C118.757 226.267 117.637 227.76 116.05 229.16C114.51 230.513 112.387 231.61 109.68 232.45C106.974 233.243 103.567 233.64 99.4602 233.64H92.7402V232.24H98.7602C101.514 232.24 103.59 231.727 104.99 230.7C106.437 229.627 107.417 228.227 107.93 226.5C108.49 224.727 108.77 222.767 108.77 220.62C108.77 216.933 108.117 214.087 106.81 212.08C105.504 210.027 103.264 209 100.09 209C98.2702 209 97.0802 209.397 96.5202 210.19C96.0069 210.983 95.7502 212.593 95.7502 215.02V249.74C95.7502 251.42 95.8669 252.68 96.1002 253.52C96.3802 254.36 96.8936 254.92 97.6402 255.2C98.3869 255.48 99.5069 255.667 101 255.76V257.16C99.7402 257.067 98.1536 257.02 96.2402 257.02C94.3269 256.973 92.3902 256.95 90.4302 256.95C88.1902 256.95 86.0669 256.973 84.0602 257.02C82.1002 257.02 80.5369 257.067 79.3702 257.16V255.76C80.8636 255.667 81.9836 255.48 82.7302 255.2C83.4769 254.92 83.9669 254.36 84.2002 253.52C84.4802 252.68 84.6202 251.42 84.6202 249.74V215.02C84.6202 213.293 84.4802 212.033 84.2002 211.24C83.9669 210.4 83.4536 209.84 82.6602 209.56C81.9136 209.233 80.8169 209.047 79.3702 209V207.6ZM92.6002 232.45C94.6069 232.497 96.3336 232.59 97.7802 232.73C99.2736 232.87 100.58 233.01 101.7 233.15C102.82 233.243 103.824 233.313 104.71 233.36C108.957 233.733 112.084 234.643 114.09 236.09C116.144 237.537 117.474 239.707 118.08 242.6L119.69 249.81C120.11 251.677 120.554 252.983 121.02 253.73C121.487 254.477 122.164 254.85 123.05 254.85C123.657 254.803 124.147 254.663 124.52 254.43C124.94 254.15 125.384 253.753 125.85 253.24L126.83 254.08C125.57 255.527 124.217 256.553 122.77 257.16C121.324 257.813 119.574 258.14 117.52 258.14C115 258.14 112.924 257.603 111.29 256.53C109.657 255.457 108.584 253.473 108.07 250.58L106.81 243.58C106.484 241.62 106.087 239.917 105.62 238.47C105.154 236.977 104.5 235.81 103.66 234.97C102.867 234.083 101.747 233.64 100.3 233.64H92.7402L92.6002 232.45ZM153.247 206.62C158.194 206.62 162.51 207.623 166.197 209.63C169.93 211.637 172.824 214.53 174.877 218.31C176.93 222.043 177.957 226.593 177.957 231.96C177.957 237.187 176.907 241.76 174.807 245.68C172.707 249.6 169.767 252.657 165.987 254.85C162.254 257.043 157.984 258.14 153.177 258.14C148.23 258.14 143.89 257.137 140.157 255.13C136.47 253.123 133.6 250.23 131.547 246.45C129.494 242.67 128.467 238.12 128.467 232.8C128.467 227.573 129.517 223 131.617 219.08C133.764 215.16 136.68 212.103 140.367 209.91C144.1 207.717 148.394 206.62 153.247 206.62ZM152.967 207.88C150.354 207.88 148.067 208.93 146.107 211.03C144.194 213.13 142.7 216.023 141.627 219.71C140.6 223.397 140.087 227.667 140.087 232.52C140.087 237.467 140.67 241.783 141.837 245.47C143.05 249.11 144.66 251.933 146.667 253.94C148.72 255.9 150.984 256.88 153.457 256.88C156.07 256.88 158.334 255.83 160.247 253.73C162.207 251.63 163.7 248.737 164.727 245.05C165.8 241.317 166.337 237.047 166.337 232.24C166.337 227.247 165.73 222.93 164.517 219.29C163.35 215.65 161.74 212.85 159.687 210.89C157.68 208.883 155.44 207.88 152.967 207.88ZM227.593 207.6V209C226.1 209.187 224.956 209.583 224.163 210.19C223.416 210.75 222.926 211.66 222.693 212.92C222.46 214.18 222.343 215.953 222.343 218.24V236.79C222.343 239.823 222.133 242.6 221.713 245.12C221.293 247.64 220.546 249.81 219.473 251.63C218.26 253.637 216.486 255.223 214.153 256.39C211.82 257.557 208.856 258.14 205.263 258.14C203.116 258.14 200.923 257.883 198.683 257.37C196.443 256.903 194.436 255.993 192.663 254.64C191.17 253.38 190.026 251.957 189.233 250.37C188.44 248.783 187.903 246.917 187.623 244.77C187.343 242.577 187.203 239.987 187.203 237V215.02C187.203 213.293 187.063 212.033 186.783 211.24C186.55 210.4 186.06 209.84 185.313 209.56C184.566 209.233 183.446 209.047 181.953 209V207.6C183.12 207.647 184.683 207.693 186.643 207.74C188.65 207.787 190.726 207.81 192.873 207.81C195.02 207.81 197.073 207.787 199.033 207.74C201.04 207.693 202.696 207.647 204.003 207.6V209C202.416 209.047 201.203 209.233 200.363 209.56C199.57 209.84 199.033 210.4 198.753 211.24C198.473 212.033 198.333 213.293 198.333 215.02V241.41C198.333 244.537 198.613 247.173 199.173 249.32C199.733 251.42 200.713 253.007 202.113 254.08C203.56 255.153 205.52 255.69 207.993 255.69C211.26 255.69 213.803 254.92 215.623 253.38C217.49 251.84 218.796 249.717 219.543 247.01C220.336 244.257 220.733 241.107 220.733 237.56V219.08C220.733 216.513 220.57 214.553 220.243 213.2C219.916 211.8 219.263 210.797 218.283 210.19C217.35 209.583 215.903 209.187 213.943 209V207.6C214.83 207.647 215.996 207.693 217.443 207.74C218.89 207.787 220.243 207.81 221.503 207.81C222.623 207.81 223.72 207.787 224.793 207.74C225.913 207.693 226.846 207.647 227.593 207.6ZM231.265 207.6C232.431 207.647 233.995 207.693 235.955 207.74C237.961 207.787 239.945 207.81 241.905 207.81C244.145 207.81 246.315 207.787 248.415 207.74C250.515 207.693 252.008 207.67 252.895 207.67C259.381 207.67 264.235 208.953 267.455 211.52C270.675 214.087 272.285 217.4 272.285 221.46C272.285 223.14 271.958 224.913 271.305 226.78C270.651 228.6 269.531 230.303 267.945 231.89C266.405 233.43 264.281 234.69 261.575 235.67C258.868 236.65 255.461 237.14 251.355 237.14H244.215V235.74H250.655C253.408 235.74 255.485 235.11 256.885 233.85C258.331 232.59 259.311 230.933 259.825 228.88C260.385 226.827 260.665 224.61 260.665 222.23C260.665 217.797 260.011 214.483 258.705 212.29C257.398 210.097 255.158 209 251.985 209C250.165 209 248.975 209.397 248.415 210.19C247.901 210.983 247.645 212.593 247.645 215.02V249.32C247.645 251.14 247.831 252.493 248.205 253.38C248.578 254.267 249.301 254.85 250.375 255.13C251.448 255.41 253.035 255.573 255.135 255.62V257.16C253.688 257.113 251.821 257.067 249.535 257.02C247.248 256.973 244.845 256.95 242.325 256.95C240.318 256.95 238.358 256.973 236.445 257.02C234.531 257.067 232.805 257.113 231.265 257.16V255.76C232.758 255.667 233.878 255.48 234.625 255.2C235.371 254.92 235.861 254.36 236.095 253.52C236.375 252.68 236.515 251.42 236.515 249.74V215.02C236.515 213.293 236.375 212.033 236.095 211.24C235.861 210.4 235.348 209.84 234.555 209.56C233.808 209.233 232.711 209.047 231.265 209V207.6Z" fill="#248AFD"/>
</svg>
