<svg width="29" height="30" viewBox="0 0 29 30" fill="none" xmlns="http://www.w3.org/2000/svg">
<path d="M14.5583 0C6.60151 0 0.116583 6.48492 0.116583 14.4417C0.116583 16.992 0.786935 19.4693 2.0402 21.6553L0 29.1457L7.65075 27.1347C9.76382 28.2859 12.1392 28.898 14.5583 28.898C22.5151 28.898 29 22.4131 29 14.4563C29 10.5945 27.499 6.96583 24.7739 4.2407C22.0487 1.501 18.4201 0 14.5583 0ZM14.5729 2.43367C17.7789 2.43367 20.7809 3.68693 23.0543 5.9603C25.3131 8.23367 26.5663 11.2503 26.5663 14.4563C26.5663 21.0724 21.1744 26.4497 14.5583 26.4497C12.4015 26.4497 10.2884 25.8814 8.45226 24.7739L8.01507 24.5261L3.46834 25.7211L4.67789 21.291L4.38643 20.8246C3.19146 18.9447 2.55025 16.7151 2.55025 14.4417C2.56482 7.82563 7.94221 2.43367 14.5729 2.43367ZM9.44322 7.76734C9.21005 7.76734 8.81658 7.85477 8.48141 8.2191C8.1608 8.58342 7.21357 9.47236 7.21357 11.2357C7.21357 13.0136 8.51055 14.7186 8.67085 14.9663C8.87487 15.2141 11.2357 18.8573 14.8643 20.402C15.7241 20.7955 16.3945 21.0141 16.9191 21.1744C17.7789 21.4513 18.5658 21.4075 19.1925 21.3201C19.892 21.2181 21.3201 20.4457 21.6261 19.6005C21.9322 18.7553 21.9322 18.0412 21.8447 17.8809C21.7427 17.7352 21.5095 17.6477 21.1452 17.4874C20.7809 17.2834 19.003 16.409 18.6824 16.2925C18.3472 16.1759 18.1432 16.1176 17.8663 16.4673C17.6332 16.8317 16.9337 17.6477 16.7296 17.8809C16.5111 18.1286 16.307 18.1578 15.9573 17.9829C15.5784 17.7935 14.4126 17.4146 13.0427 16.1905C11.9643 15.2286 11.2502 14.0482 11.0317 13.6839C10.8568 13.3342 11.0171 13.1156 11.192 12.9553C11.3523 12.795 11.5854 12.5327 11.7312 12.3141C11.9206 12.11 11.9789 11.9497 12.0955 11.7166C12.2121 11.4688 12.1538 11.2648 12.0663 11.0899C11.9789 10.9296 11.2503 9.12261 10.9442 8.40854C10.6528 7.70904 10.3613 7.79648 10.1281 7.78191C9.92412 7.78191 9.69095 7.76734 9.44322 7.76734Z" fill="white"/>
</svg>
